<svg version="1.1" xmlns="http://www.w3.org/2000/svg" xmlns:xlink="http://www.w3.org/1999/xlink" width="338" height="360"><defs></defs><g><g transform="translate(-218,-130) scale(1,1)"><rect fill="#C0C0C0" stroke="none" x="235" y="151" width="74" height="39" opacity="0.2"></rect></g><g transform="translate(-218,-130) scale(1,1)"><rect fill="#ffffff" stroke="none" x="228" y="144" width="74" height="39"></rect></g><g transform="translate(-218,-130) scale(1,1)"><path fill="none" stroke="#000000" d="M 228 144 L 302 144 L 302 183 L 228 183 L 228 144 Z Z" stroke-miterlimit="10"></path></g><g transform="translate(-218,-130) scale(1,1)"><g><path fill="none" stroke="none"></path><text fill="#000000" stroke="none" font-family="Arial" font-size="13px" font-style="normal" font-weight="bold" text-decoration="none" x="248.5" y="163.5">Client</text></g></g><g transform="translate(-218,-130) scale(1,1)"><path fill="none" stroke="#000000" d="M 266 184 L 266 476" stroke-miterlimit="10" stroke-dasharray="3"></path></g><g transform="translate(-218,-130) scale(1,1)"><rect fill="#C0C0C0" stroke="none" x="479" y="147" width="74" height="39" opacity="0.2"></rect></g><g transform="translate(-218,-130) scale(1,1)"><rect fill="#ffffff" stroke="none" x="472" y="140" width="74" height="39"></rect></g><g transform="translate(-218,-130) scale(1,1)"><path fill="none" stroke="#000000" d="M 472 140 L 546 140 L 546 179 L 472 179 L 472 140 Z Z" stroke-miterlimit="10"></path></g><g transform="translate(-218,-130) scale(1,1)"><g><path fill="none" stroke="none"></path><text fill="#000000" stroke="none" font-family="Arial" font-size="13px" font-style="normal" font-weight="bold" text-decoration="none" x="483" y="159.5">Web API</text></g></g><g transform="translate(-218,-130) scale(1,1)"><path fill="none" stroke="#000000" d="M 510 180 L 510 480" stroke-miterlimit="10" stroke-dasharray="3"></path></g><g transform="translate(-218,-130) scale(1,1)"><path fill="none" stroke="#000000" d="M 265.5 224 L 502.5 224" stroke-miterlimit="10"></path></g><g transform="translate(-218,-130) scale(1,1)"><path fill="#000000" stroke="none" d="M 492.33732514237585 228.209517756016 L 502.5 224 L 492.33732514237585 219.790482243984"></path></g><g transform="translate(-218,-130) scale(1,1)"><path fill="none" stroke="#000000" d="M 492.33732514237585 228.209517756016 L 502.5 224 L 492.33732514237585 219.790482243984 L 492.33732514237585 228.209517756016" stroke-miterlimit="10"></path></g><g transform="translate(-218,-130) scale(1,1)"><g><path fill="none" stroke="none"></path><text fill="#000000" stroke="none" font-family="Arial" font-size="13px" font-style="normal" font-weight="normal" text-decoration="none" x="338" y="221">1 : Send picture</text></g></g><g transform="translate(-218,-130) scale(1,1)"><rect fill="#ffffff" stroke="none" x="502.5" y="224" width="13" height="28"></rect></g><g transform="translate(-218,-130) scale(1,1)"><path fill="none" stroke="#000000" d="M 502.5 224 L 515.5 224 L 515.5 252 L 502.5 252 L 502.5 224 Z Z" stroke-miterlimit="10"></path></g><g transform="translate(-218,-130) scale(1,1)"><path fill="none" stroke="#000000" d="M 502.5 248 L 265.5 248" stroke-miterlimit="10" stroke-dasharray="3"></path></g><g transform="translate(-218,-130) scale(1,1)"><path fill="none" stroke="#000000" d="M 275.66267485762415 243.790482243984 L 265.5 248 L 275.66267485762415 252.209517756016" stroke-miterlimit="10"></path></g><g transform="translate(-218,-130) scale(1,1)"><g><path fill="none" stroke="none"></path><text fill="#000000" stroke="none" font-family="Arial" font-size="13px" font-style="normal" font-weight="normal" text-decoration="none" x="328" y="265">2 : Get resource ID</text></g></g><g transform="translate(-218,-130) scale(1,1)"><path fill="none" stroke="#000000" d="M 265.5 292 L 502.5 292" stroke-miterlimit="10"></path></g><g transform="translate(-218,-130) scale(1,1)"><path fill="#000000" stroke="none" d="M 492.33732514237585 296.209517756016 L 502.5 292 L 492.33732514237585 287.790482243984"></path></g><g transform="translate(-218,-130) scale(1,1)"><path fill="none" stroke="#000000" d="M 492.33732514237585 296.209517756016 L 502.5 292 L 492.33732514237585 287.790482243984 L 492.33732514237585 296.209517756016" stroke-miterlimit="10"></path></g><g transform="translate(-218,-130) scale(1,1)"><g><path fill="none" stroke="none"></path><text fill="#000000" stroke="none" font-family="Arial" font-size="13px" font-style="normal" font-weight="normal" text-decoration="none" x="338" y="289">3 : Send picture</text></g></g><g transform="translate(-218,-130) scale(1,1)"><rect fill="#ffffff" stroke="none" x="502.5" y="292" width="13" height="28"></rect></g><g transform="translate(-218,-130) scale(1,1)"><path fill="none" stroke="#000000" d="M 502.5 292 L 515.5 292 L 515.5 320 L 502.5 320 L 502.5 292 Z Z" stroke-miterlimit="10"></path></g><g transform="translate(-218,-130) scale(1,1)"><path fill="none" stroke="#000000" d="M 502.5 316 L 265.5 316" stroke-miterlimit="10" stroke-dasharray="3"></path></g><g transform="translate(-218,-130) scale(1,1)"><path fill="none" stroke="#000000" d="M 275.66267485762415 311.790482243984 L 265.5 316 L 275.66267485762415 320.209517756016" stroke-miterlimit="10"></path></g><g transform="translate(-218,-130) scale(1,1)"><g><path fill="none" stroke="none"></path><text fill="#000000" stroke="none" font-family="Arial" font-size="13px" font-style="normal" font-weight="normal" text-decoration="none" x="328" y="333">4 : Get resource ID</text></g></g><g transform="translate(-218,-130) scale(1,1)"><path fill="#ffffff" stroke="none" d="M 240 360 L 521 360 L 531 370 L 531 383 L 240 383 L 240 360"></path></g><g transform="translate(-218,-130) scale(1,1)"><path fill="none" stroke="#000000" d="M 240 360 L 521 360 L 531 370 L 531 383 L 240 383 L 240 360 L 240 360" stroke-miterlimit="10"></path></g><g transform="translate(-218,-130) scale(1,1)"><path fill="none" stroke="#000000" d="M 521 360 L 521 370 L 531 370 L 521 360" stroke-miterlimit="10"></path></g><g transform="translate(-218,-130) scale(1,1)"><g><path fill="none" stroke="none"></path><text fill="#000000" stroke="none" font-family="Arial" font-size="13px" font-style="normal" font-weight="normal" text-decoration="none" x="245" y="378">Proceed until all pictures have been uploaded...</text></g></g><g transform="translate(-218,-130) scale(1,1)"><path fill="none" stroke="#000000" d="M 265.5 408 L 502.5 408" stroke-miterlimit="10"></path></g><g transform="translate(-218,-130) scale(1,1)"><path fill="#000000" stroke="none" d="M 492.33732514237585 412.209517756016 L 502.5 408 L 492.33732514237585 403.790482243984"></path></g><g transform="translate(-218,-130) scale(1,1)"><path fill="none" stroke="#000000" d="M 492.33732514237585 412.209517756016 L 502.5 408 L 492.33732514237585 403.790482243984 L 492.33732514237585 412.209517756016" stroke-miterlimit="10"></path></g><g transform="translate(-218,-130) scale(1,1)"><g><path fill="none" stroke="none"></path><text fill="#000000" stroke="none" font-family="Arial" font-size="13px" font-style="normal" font-weight="normal" text-decoration="none" x="340" y="405">5 : Send record</text></g></g><g transform="translate(-218,-130) scale(1,1)"><rect fill="#ffffff" stroke="none" x="502.5" y="408" width="13" height="28"></rect></g><g transform="translate(-218,-130) scale(1,1)"><path fill="none" stroke="#000000" d="M 502.5 408 L 515.5 408 L 515.5 436 L 502.5 436 L 502.5 408 Z Z" stroke-miterlimit="10"></path></g><g transform="translate(-218,-130) scale(1,1)"><path fill="none" stroke="#000000" d="M 502.5 434 L 265.5 434" stroke-miterlimit="10" stroke-dasharray="3"></path></g><g transform="translate(-218,-130) scale(1,1)"><path fill="none" stroke="#000000" d="M 275.66267485762415 429.790482243984 L 265.5 434 L 275.66267485762415 438.209517756016" stroke-miterlimit="10"></path></g><g transform="translate(-218,-130) scale(1,1)"><g><path fill="none" stroke="none"></path><text fill="#000000" stroke="none" font-family="Arial" font-size="13px" font-style="normal" font-weight="normal" text-decoration="none" x="295" y="451">6 : Receive record ID (optional)</text></g></g></g></svg>